<svg version="1" xmlns="http://www.w3.org/2000/svg" width="1365.333" height="1365.333" viewBox="0 0 1024.000000 1024.000000"><path d="M507.6 35.9c-.3.4-9 1.1-19.3 1.5-20.7.8-20.7.8-37.8 3-12.2 1.5-23.7 3.4-35.5 6-3.6.7-10.1 2.1-14.5 3-4.4 1-9.1 2.1-10.5 2.6-1.4.5-5.9 1.8-10 3-34.6 10.1-67.4 23.6-98.5 40.8-10.5 5.8-34.1 20.5-41.2 25.6-2.3 1.7-6.1 4.4-8.4 6.1-43.2 30.9-88.2 78.4-118.1 124.5-12.1 18.7-26.9 45.6-34.6 63-8.3 18.8-15.3 37.1-20.1 53-1.8 5.8-3.6 11.6-4.1 13-1.2 3.2-7.6 29.9-9 37-3.6 19.3-6.4 40-7.8 59-.9 12.5-.9 57 0 69 1 12.4 2.6 27.8 3.4 31.2.3 1.5 1.2 6.9 2 12 4.9 32.2 17.4 77 28.4 101.3.5 1.1 2 4.7 3.4 8 4.8 11.9 18.7 39.4 25.8 51.5 23.1 38.8 46.9 69.1 78.9 100.5 43.3 42.3 89.2 73.2 142.9 96.2 9.6 4.1 18.4 7.8 19.5 8.3 1.1.5 3.8 1.4 6 2.1 2.2.6 4.5 1.5 5 1.9.6.4 2.6 1.1 4.5 1.5 1.9.4 4.1 1.1 5 1.5 1.7 1 8.8 3 34 10.1 14.9 4.1 44.3 9 69 11.5 17.8 1.8 65.4 2.6 78 1.3 4.7-.5 13.2-1.3 19-1.9 13.4-1.3 31.6-4.1 48.5-7.5 14.9-3 47.7-12.4 60.7-17.4 3.2-1.2 9.1-3.5 17-6.6 9.1-3.5 17.5-7.3 34.8-15.8C828.6 884.1 914 789.8 955 681c1.8-4.7 3.6-9.4 4-10.5 7.4-18.9 19-64.9 21.5-85 .3-2.8 1-6.8 1.5-9 1.1-4.7 2.9-24.7 3.5-39.5.3-5.8.9-10.6 1.5-10.8 1.3-.5 1.4-29.9 0-30.4-.5-.2-1.2-4.8-1.5-10.3-2.5-48.5-11.7-93.2-28.7-139.5-2.1-5.8-4.2-11.4-4.7-12.5-.5-1.1-2.9-6.5-5.2-12-5.1-12-18.6-38.6-25.9-51-43.9-74.4-111-138.8-185.5-178-6.1-3.2-11.4-6.1-12-6.5-.5-.4-4.6-2.3-9-4.3-4.4-1.9-10.7-4.7-14-6.1-3.3-1.5-6.9-3.1-8-3.6-23.9-10.7-64.8-22.4-99-28.5-20.5-3.7-35.1-5.2-59.2-6.1-10.1-.4-18.3-1.1-18.3-1.5 0-1.2-7.7-1.2-8.4 0zm47.9 161.9c87.3 12.8 161.3 57.5 213.2 128.7 67.7 93 78.2 221.2 26.6 325-23.2 46.7-57.7 87.1-99.9 117.3-45.1 32.2-99.9 52.6-153.9 57.2-60 5.2-117.6-5.3-169.2-30.8-31.9-15.7-56.2-33.2-82.5-59-26.5-26-45.2-51.6-60.9-83.2-23.1-46.4-33.1-89.2-33.2-141.5 0-36.7 4.3-64.7 15-97.9C248 297.9 350.3 212.8 470.5 197.5c18.5-2.3 18.4-2.3 45.5-2 19.3.2 28.9.8 39.5 2.3z"/><path d="M495.5 353c-26.8 3.1-51.5 12.2-74 27.3-12.3 8.3-33.1 29.2-41.4 41.7-11.6 17.6-19.9 37.3-24.3 57.6-2 9.5-2.3 13.5-2.2 31.9 0 22 1.1 30.1 6.3 47 9.8 31.6 32.1 62.5 59.1 81.8 11.1 7.9 31.9 18.4 44 22.2 18.3 5.7 26.9 6.9 48.5 6.9 20.2.1 26.2-.6 42.5-5 30.3-8.2 59.8-27.3 80-51.9 49.9-60.9 48.6-147.3-3.3-206.6-23.8-27.2-60.3-47-95.2-51.9-11.5-1.5-30.7-2-40-1z"/></svg>