<svg xmlns="http://www.w3.org/2000/svg" height="32" viewBox="0 0 32 32" width="32">
    <title> Search book titles </title>
    <g fill="none"><g fill="#444"><path d="M19.4 20.4C18 21.4 16.3 22 14.5 22 9.8 22 6 18.2 6 13.5 6 8.8 9.8 5 14.5 5 19.2 5 23 8.8 23 13.5 23 15.8 22 18 20.5 19.5L26.5 25.5C26.8 25.8 26.8 26.2 26.5 26.5 26.2 26.8 25.8 26.8 25.5 26.5L19.4 20.4 19.4 20.4ZM14.5 21C18.6 21 22 17.6 22 13.5 22 9.4 18.6 6 14.5 6 10.4 6 7 9.4 7 13.5 7 17.6 10.4 21 14.5 21L14.5 21Z"/></g></g>
</svg>