<svg xmlns="http://www.w3.org/2000/svg" width="25" height="17" viewBox="0 17 25 17"><style>.a{opacity:.2}.a,.b{fill:#fff}</style><path class="a" d="M0 17h25v17H0zM0 0h25v17H0z"/><path d="M1 30.7v-1.2h23v1.2H1zm0-3.5v1.2h23v-1.2H1zm23-8V18H12.4v1.2H24zM1 31.8V33h23v-1.2H1zm11.4-6.9v1.2H24v-1.2H12.4zm0-4.6v1.2H24v-1.2H12.4zm0 2.3v1.2H24v-1.2H12.4z" fill="#B22234"/><path d="M24 31.8H1v-1.2h23v1.2zm0-2.3H1v-1.2h23v1.2zm0-2.3H1V26h23v1.2zm0-2.3H12.4v-1.2H24v1.2zm0-2.3H12.4v-1.2H24v1.2zm0-2.3H12.4v-1.2H24v1.2z" class="b"/><path fill="#3C3B6E" d="M1 18h11.4v8.1H1z"/><path d="M2.1 18.7h.3l-.3.2.1.3L2 19l-.3.2.1-.3-.3-.2h.3l.1-.3.2.3zM2 20l-.2.3h-.3l.3.2-.1.3.3-.2.3.2-.1-.3.3-.2h-.4L2 20zm0 1.6l-.1.3h-.4l.3.2-.1.3.3-.2.3.2-.1-.3.3-.2h-.4l-.1-.3zm0 1.6l-.1.3h-.4l.3.2-.1.3.3-.2.3.2-.1-.3.3-.2h-.4l-.1-.3zm.1 1.9l-.1-.3-.1.3h-.4l.3.2-.1.3.3-.2.3.2-.1-.3.3-.2h-.4zm.8-5.9l-.1.3h-.3l.3.2-.1.3.2-.2.3.2-.1-.3.3-.2H3l-.1-.3zm0 1.6l-.1.3h-.3l.3.2-.1.3.2-.2.3.2-.1-.3.3-.2H3l-.1-.3zm0 1.6l-.1.3h-.3l.2.2-.1.3.3-.2.3.2-.1-.3.3-.2H3l-.1-.3zm.1 1.9l-.1-.3-.1.3h-.3l.3.2-.1.3.2-.2.3.2-.1-.3.3-.2H3zm.9-6l-.1.3h-.4l.3.2-.1.3.3-.2.3.2-.1-.3.3-.2H4l-.1-.3zm0 1.7l-.2.3h-.3l.3.2-.1.3.3-.2.3.2-.1-.3.3-.2H4l-.1-.3zm0 1.6l-.1.3h-.4l.3.2-.1.3.3-.2.3.2-.1-.3.3-.2H4l-.1-.3zm0 1.6l-.1.3h-.4l.3.2-.1.3.3-.2.3.2-.1-.3.3-.2H4l-.1-.3zm.1 1.9l-.1-.3-.1.3h-.4l.3.2-.1.3.3-.2.3.2-.1-.3.3-.2H4zm.8-5.9l-.1.3h-.3l.3.2-.1.3.2-.2.3.2-.1-.3.3-.2h-.4l-.1-.3zm0 1.6l-.1.3h-.3l.3.2-.1.3.2-.2.3.2-.1-.3.3-.2h-.4l-.1-.3zm0 1.6l-.1.3h-.3l.2.2-.1.3.3-.2.3.2-.1-.3.3-.2h-.4l-.1-.3zm.1 1.9l-.1-.3-.1.3h-.3l.3.2-.1.3.2-.2.3.2-.1-.3.3-.2h-.4zm.9-6l-.1.3h-.4l.3.2-.1.3.3-.2.3.2-.1-.3.3-.2h-.4l-.1-.3zm0 1.7l-.2.3h-.3l.3.2-.1.3.3-.2.3.2-.1-.3.3-.2h-.4l-.1-.3zm0 1.6l-.1.3h-.4l.3.2-.1.3.3-.2.3.2-.1-.3.3-.2h-.4l-.1-.3zm0 1.6l-.1.3h-.4l.3.2-.1.3.3-.2.3.2-.1-.3.3-.2h-.4l-.1-.3zm.1 1.9l-.1-.3-.1.3h-.4l.3.2-.1.3.3-.2.3.2-.1-.3.3-.2h-.4zm.8-5.9l-.1.3h-.3l.3.2-.1.3.2-.2.3.2-.1-.3.3-.2h-.4l-.1-.3zm0 1.6l-.1.3h-.3l.3.2-.1.3.2-.2.3.2-.1-.3.3-.2h-.4l-.1-.3zm0 1.6l-.1.3h-.3l.2.2-.1.3.3-.2.3.2-.1-.3.3-.2h-.4l-.1-.3zm.1 1.9l-.1-.3-.1.3h-.3l.3.2-.1.3.2-.2.3.2-.1-.3.3-.2h-.4zm.8-6l-.1.3h-.3l.3.2-.1.3.3-.2.3.2-.1-.3.3-.2h-.4l-.2-.3zm0 1.7l-.1.3h-.3l.3.2-.1.3.3-.2.3.2-.1-.3.3-.2h-.4l-.2-.3zm0 1.6l-.1.3h-.3l.3.2-.1.3.3-.2.3.2-.1-.3.3-.2h-.4l-.2-.3zm0 1.6l-.1.3h-.3l.3.2-.1.3.3-.2.3.2-.1-.3.3-.2h-.4l-.2-.3zm.2 1.9l-.1-.3-.1.3h-.4l.3.2-.1.3.3-.2.3.2-.1-.3.3-.2h-.4zm.8-5.9l-.1.3h-.3l.3.2-.1.3.2-.2.3.2-.1-.3.3-.2h-.4l-.1-.3zm0 1.6l-.1.3h-.3l.3.2-.1.3.2-.2.3.2-.1-.3.3-.2h-.4l-.1-.3zm0 1.6l-.1.3h-.3l.2.2-.1.3.3-.2.3.2-.1-.3.3-.2h-.4l-.1-.3zm.1 1.9l-.1-.3-.1.3h-.3l.3.2-.1.3.2-.2.3.2-.1-.3.3-.2h-.4zm.9-6l-.1.3h-.4l.3.2-.1.3.3-.2.3.2-.1-.3.3-.2h-.4l-.1-.3zm0 1.7l-.2.3h-.3l.3.2-.1.3.3-.2.3.2-.1-.3.3-.2h-.4l-.1-.3zm0 1.6l-.1.3h-.4l.3.2-.1.3.3-.2.3.2-.1-.3.3-.2h-.4l-.1-.3zm0 1.6l-.1.3h-.4l.3.2-.1.3.3-.2.3.2-.1-.3.3-.2h-.4l-.1-.3zm.1 1.9l-.1-.3-.1.3h-.4l.3.2-.1.3.3-.2.3.2-.1-.3.3-.2h-.4zm.8-5.9l-.1.3h-.3l.3.2-.1.3.3-.2.3.2-.1-.3.3-.2h-.3l-.3-.3zm0 1.6l-.1.3h-.3l.3.2-.1.3.3-.2.3.2-.1-.3.3-.2h-.3l-.3-.3zm0 1.6l-.1.3h-.3l.3.2-.1.3.3-.2.3.2-.2-.3.3-.2h-.3l-.2-.3zm.1 1.9l-.1-.3-.1.3h-.3l.3.2-.1.3.3-.2.3.2-.1-.3.3-.2h-.5zm.7-5.4l-.1.3.3-.2.3.2-.1-.3.3-.2h-.3l-.1-.3-.1.3h-.3l.1.2zm.2 1.1l-.1.3h-.3l.3.2-.1.3.3-.2.3.2-.1-.3.3-.2h-.3l-.3-.3zm0 1.6l-.1.3h-.3l.3.2-.1.3.3-.2.3.2-.1-.3.3-.2h-.3l-.3-.3zm0 1.6l-.1.3h-.3l.3.2-.1.3.3-.2.3.2-.1-.3.3-.2h-.3l-.3-.3zm.1 1.9l-.1-.3-.1.3h-.3l.3.2-.1.3.3-.2.3.2-.1-.3.3-.2h-.5z" class="b"/><path fill="none" d="M0 17h25v17H0z"/></svg>